<?xml version="1.0" standalone="no"?>
<!DOCTYPE svg PUBLIC "-//W3C//DTD SVG 20010904//EN"
 "http://www.w3.org/TR/2001/REC-SVG-20010904/DTD/svg10.dtd">
<svg version="1.0" xmlns="http://www.w3.org/2000/svg"
 width="449.000000pt" height="449.000000pt" viewBox="0 0 449.000000 449.000000"
 preserveAspectRatio="xMidYMid meet">
<metadata>
Created by potrace 1.14, written by Peter Selinger 2001-2017
</metadata>
<g transform="translate(0.000000,449.000000) scale(0.100000,-0.100000)"
fill="#000000" stroke="none">
<path d="M2465 3980 c-84 -13 -164 -69 -330 -231 -71 -70 -166 -155 -210 -190
-88 -69 -93 -74 -171 -170 -67 -82 -109 -168 -118 -239 -8 -63 -17 -76 -62
-95 -30 -12 -204 -121 -409 -253 -91 -59 -296 -214 -410 -311 -122 -103 -356
-338 -435 -436 -132 -167 -236 -352 -264 -475 -22 -92 -16 -255 12 -345 65
-213 224 -450 397 -591 78 -63 114 -81 252 -123 46 -14 239 -6 298 12 28 9
113 34 190 56 77 22 175 54 218 70 282 111 598 300 1016 610 112 83 211 151
220 151 9 0 53 -29 96 -65 120 -98 191 -147 290 -201 302 -164 387 -183 573
-135 147 38 258 98 337 180 22 23 106 108 186 189 252 254 304 364 263 559
-58 278 -173 592 -308 838 -148 270 -385 571 -560 710 -27 22 -185 130 -352
241 -340 227 -333 224 -554 240 -47 3 -94 7 -105 8 -11 1 -38 0 -60 -4z m40
-61 c7 -8 -70 -62 -155 -108 -74 -40 -74 -40 -46 -50 15 -6 30 -11 34 -11 13
0 214 -120 294 -175 43 -30 78 -51 78 -48 0 9 -79 80 -151 135 -37 29 -67 54
-65 56 6 5 108 -45 151 -73 22 -15 65 -45 96 -67 42 -29 70 -41 109 -45 40 -4
51 -3 45 7 -12 20 -202 157 -270 195 -69 39 -88 56 -56 50 33 -6 200 -93 279
-146 41 -27 88 -51 105 -54 75 -12 97 -13 92 -4 -3 5 -55 47 -115 95 -61 47
-110 88 -110 91 0 10 67 -10 106 -32 22 -13 77 -54 122 -90 45 -36 82 -63 82
-59 0 3 -26 33 -57 66 -108 112 -265 196 -418 224 -12 2 -48 12 -80 23 -132
42 51 39 198 -4 129 -37 208 -77 384 -195 90 -61 166 -110 169 -110 20 0 262
-199 330 -272 63 -67 224 -273 291 -373 132 -196 249 -435 328 -669 46 -137
96 -343 100 -411 2 -50 -16 -129 -40 -175 -35 -68 -140 -196 -249 -306 -308
-308 -537 -403 -773 -320 -122 43 -448 228 -504 286 -25 26 -39 55 -44 99 -5
38 -2 44 61 113 65 72 135 167 147 201 18 48 86 37 157 -25 24 -22 78 -60 120
-85 41 -26 113 -71 158 -100 46 -30 103 -63 125 -73 45 -21 154 -106 150 -117
-2 -3 -14 -8 -29 -9 -38 -4 -40 -11 -5 -29 45 -23 29 -35 -37 -29 l-57 5 24
-19 c31 -25 14 -36 -45 -27 -57 8 -59 -11 -4 -32 22 -9 40 -20 40 -24 0 -7
-53 -6 -108 2 -26 4 -34 -2 -22 -16 18 -21 -6 -28 -85 -23 -36 2 -65 1 -65 -3
0 -4 20 -17 45 -29 175 -85 333 -55 465 87 84 90 121 168 121 259 0 62 -27
279 -36 294 -2 4 -6 20 -9 36 -12 64 -70 224 -118 324 -169 349 -564 773 -977
1047 -103 68 -431 235 -496 252 -116 30 -239 31 -317 1 -163 -61 -247 -208
-249 -435 0 -120 17 -208 43 -213 12 -2 14 7 10 52 -3 37 2 74 16 118 11 34
25 82 32 106 11 41 13 43 41 37 40 -9 59 9 59 56 0 49 13 56 47 25 22 -21 34
-24 67 -20 36 5 44 2 70 -25 24 -25 29 -39 28 -70 -3 -51 8 -78 62 -148 24
-32 64 -96 88 -143 41 -81 118 -191 188 -270 62 -69 101 -180 80 -221 -32 -61
-240 -285 -280 -301 -59 -25 -118 -2 -175 68 -174 213 -383 621 -411 804 -3
19 -9 53 -14 75 -13 58 -5 203 14 255 9 24 29 65 43 90 29 49 246 270 418 426
60 54 123 112 140 127 80 75 192 124 220 96z m108 -86 c35 -18 46 -28 35 -31
-19 -4 -98 36 -98 50 0 12 6 10 63 -19z m-99 -544 c185 -93 384 -223 536 -348
55 -45 288 -276 366 -361 167 -186 313 -429 387 -650 38 -111 75 -328 64 -372
-22 -85 -241 -61 -461 49 -172 86 -386 253 -386 301 0 11 11 39 24 63 37 66
108 238 121 294 14 63 11 137 -10 195 -25 69 -156 259 -226 325 -34 33 -101
99 -149 147 -48 49 -104 95 -125 104 -98 41 -255 80 -355 89 -41 4 -79 10 -84
15 -13 13 20 111 52 154 35 46 67 66 102 59 14 -2 78 -31 144 -64z m-114 -218
c36 -7 109 -25 162 -42 96 -29 99 -31 149 -92 53 -64 159 -185 194 -221 85
-88 191 -219 207 -256 60 -137 13 -293 -184 -607 -110 -176 -155 -237 -242
-325 -103 -104 -139 -133 -406 -329 -401 -295 -748 -475 -1095 -572 -237 -66
-333 -75 -457 -41 -170 46 -284 138 -467 378 -76 100 -151 271 -168 385 -32
219 63 443 318 746 72 86 283 296 388 385 147 126 599 442 738 516 87 46 103
23 17 -26 -31 -17 -97 -62 -147 -99 -51 -37 -118 -84 -150 -105 -33 -22 -60
-48 -63 -61 -3 -12 -27 -36 -52 -53 -26 -17 -65 -47 -87 -67 -22 -21 -33 -33
-25 -28 102 66 260 133 311 133 37 0 30 -16 -27 -58 -25 -19 -43 -36 -41 -39
3 -2 45 16 93 40 100 50 150 68 123 46 -9 -8 -30 -36 -47 -62 l-32 -48 62 5
63 4 -55 -48 c-30 -27 -53 -51 -50 -53 3 -3 30 6 60 20 30 14 75 28 100 30
l45 4 -60 -33 c-64 -36 -131 -81 -180 -122 l-30 -25 51 16 c49 15 84 13 84 -5
0 -5 -23 -19 -52 -32 -75 -34 -267 -192 -302 -248 -33 -55 -106 -107 -136 -97
-23 7 -29 1 -145 -134 -102 -119 -102 -119 -134 -135 -15 -8 -55 -48 -89 -89
-46 -54 -68 -74 -81 -70 -12 3 -29 -9 -53 -36 -56 -66 -72 -49 -31 32 12 25 2
40 -12 17 -10 -16 -83 -60 -99 -60 -13 0 -13 6 1 46 18 52 13 62 -22 46 -33
-15 -39 -2 -39 98 0 70 3 82 47 167 77 154 100 186 240 331 26 27 28 32 12 32
-27 0 -187 -170 -250 -265 -74 -112 -176 -298 -196 -357 -23 -70 -25 -217 -3
-263 27 -57 148 -161 239 -205 201 -97 394 -99 695 -9 36 11 73 24 82 30 10 5
22 9 28 9 6 0 55 20 110 45 246 113 542 300 800 504 92 73 362 335 449 436
112 129 186 263 220 398 23 91 19 134 -23 222 -57 117 -138 192 -248 229 -64
21 -88 25 -195 33 -66 4 -94 10 -98 20 -3 8 -3 18 0 23 6 10 103 5 185 -9z
m244 -562 c28 -13 57 -64 49 -88 -12 -37 -27 -61 -41 -61 -31 0 -121 127 -107
150 8 14 69 13 99 -1z m-798 -167 c6 -4 31 -38 54 -77 51 -81 115 -169 223
-308 64 -82 75 -101 67 -117 -14 -25 -201 -175 -325 -259 -290 -198 -515 -316
-760 -402 -138 -48 -233 -68 -343 -72 -177 -7 -211 27 -173 173 43 165 147
328 332 524 197 208 472 406 684 491 114 46 214 65 241 47z"/>
<path d="M2254 3715 c-4 -8 -12 -15 -19 -15 -7 0 -18 -6 -24 -14 -9 -11 2 -19
61 -40 78 -29 137 -65 106 -66 -10 0 -42 9 -71 20 -30 11 -73 22 -96 25 -36 3
-41 2 -30 -11 6 -8 18 -14 26 -14 8 0 67 -20 130 -45 64 -25 118 -44 120 -41
2 2 -4 12 -14 22 -17 17 -17 17 16 11 21 -5 39 -3 48 5 11 9 22 8 49 -7 47
-25 56 -10 14 26 -35 29 -279 159 -300 159 -6 0 -13 -7 -16 -15z"/>
<path d="M1860 2509 c0 -9 7 -22 15 -29 19 -16 19 0 0 26 -12 16 -14 16 -15 3z"/>
<path d="M1930 2367 c0 -8 9 -22 20 -32 20 -18 20 -18 9 13 -11 32 -29 43 -29
19z"/>
<path d="M2875 1384 c55 -43 226 -124 259 -124 17 0 -115 76 -194 110 -75 33
-95 37 -65 14z"/>
<path d="M2862 2527 c-15 -66 -70 -176 -125 -248 -67 -89 -90 -120 -116 -153
l-25 -31 34 30 c60 54 68 63 125 137 76 99 158 263 145 288 -18 34 -25 29 -38
-23z"/>
<path d="M2892 2400 c-82 -128 -196 -281 -265 -352 -30 -32 -52 -58 -50 -58
11 0 101 71 134 107 32 34 51 58 123 157 37 51 37 25 1 -41 -52 -95 -112 -170
-234 -291 -102 -102 -101 -113 4 -28 28 23 52 43 55 46 3 3 16 14 29 25 l25
20 -22 -31 c-12 -18 -75 -82 -139 -144 -118 -113 -115 -122 7 -24 120 96 231
214 365 388 68 89 81 99 76 58 -2 -12 -131 -202 -155 -228 -91 -98 -199 -201
-322 -305 -129 -109 -179 -159 -159 -159 5 0 316 248 325 259 19 24 211 203
205 191 -5 -8 -35 -52 -67 -96 -140 -198 -312 -354 -530 -482 -43 -24 -78 -46
-78 -47 0 -2 15 1 33 5 140 31 433 274 593 490 112 151 163 240 170 296 4 27
15 65 24 84 16 32 21 132 8 145 -2 3 -29 -30 -58 -73 -63 -89 -79 -110 -138
-172 l-43 -45 47 80 c145 251 139 237 120 250 -12 9 -15 20 -11 38 14 54 -13
31 -73 -63z m28 -42 c0 -16 -49 -77 -50 -63 0 12 37 75 45 75 3 0 5 -6 5 -12z"/>
<path d="M1606 900 c-43 -43 -117 -77 -316 -146 -110 -38 -245 -68 -230 -51 3
3 71 31 150 62 155 61 216 91 224 110 2 7 -77 -19 -177 -57 -155 -59 -310
-111 -367 -122 -143 -28 -144 -28 -116 -43 49 -26 218 -20 319 11 26 8 47 13
47 11 0 -5 155 48 295 101 157 59 238 116 217 151 -5 8 -20 -1 -46 -27z"/>
<path d="M829 906 c-2 -3 -36 -8 -74 -12 -39 -3 -79 -8 -90 -9 -11 -1 -56 -3
-100 -4 -65 -1 -76 -4 -60 -13 25 -15 133 -18 213 -7 61 9 164 46 131 48 -9 1
-18 -1 -20 -3z"/>
<path d="M857 844 c-1 -1 -29 -5 -62 -8 -167 -17 -218 -38 -75 -31 81 5 215
29 229 41 4 4 -88 1 -92 -2z"/>
<path d="M1012 815 c-74 -18 -159 -36 -190 -40 -100 -11 -127 -16 -137 -27
-18 -19 184 0 280 26 79 22 217 76 190 74 -5 0 -70 -15 -143 -33z"/>
</g>
</svg>
